<mxfile host="app.diagrams.net" agent="Mozilla/5.0 (Windows NT 10.0; Win64; x64) AppleWebKit/537.36 (KHTML, like Gecko) Chrome/128.0.0.0 Safari/537.36" version="24.7.12">
  <diagram name="Page-1" id="2c0d36ab-eaac-3732-788b-9136903baeff">
    <mxGraphModel dx="1103" dy="568" grid="1" gridSize="10" guides="1" tooltips="1" connect="1" arrows="1" fold="1" page="1" pageScale="1.5" pageWidth="1169" pageHeight="827" background="none" math="0" shadow="0">
      <root>
        <mxCell id="0" />
        <mxCell id="1" parent="0" />
        <mxCell id="wOmWH4nXs55I6z04dUob-125" style="edgeStyle=orthogonalEdgeStyle;rounded=0;orthogonalLoop=1;jettySize=auto;html=1;exitX=0.5;exitY=1;exitDx=0;exitDy=0;entryX=0.5;entryY=0;entryDx=0;entryDy=0;strokeWidth=2;fillColor=#1ba1e2;strokeColor=#006EAF;" parent="1" source="2" target="TKSZ8O7KscSdH1ZMQKX3-231" edge="1">
          <mxGeometry relative="1" as="geometry">
            <Array as="points">
              <mxPoint x="869" y="150" />
              <mxPoint x="1095" y="150" />
            </Array>
          </mxGeometry>
        </mxCell>
        <mxCell id="wOmWH4nXs55I6z04dUob-130" style="edgeStyle=orthogonalEdgeStyle;rounded=0;orthogonalLoop=1;jettySize=auto;html=1;exitX=0.5;exitY=1;exitDx=0;exitDy=0;entryX=0.5;entryY=0;entryDx=0;entryDy=0;strokeWidth=2;fillColor=#1ba1e2;strokeColor=#006EAF;" parent="1" source="2" target="wOmWH4nXs55I6z04dUob-129" edge="1">
          <mxGeometry relative="1" as="geometry">
            <Array as="points">
              <mxPoint x="869" y="150" />
              <mxPoint x="1405" y="150" />
            </Array>
          </mxGeometry>
        </mxCell>
        <mxCell id="2" value="Home" style="rounded=1;fillColor=#1ba1e2;strokeColor=#006EAF;fontStyle=1;fontFamily=Tahoma;fontSize=14;fontColor=#ffffff;" parent="1" vertex="1">
          <mxGeometry x="774" y="43" width="190" height="80" as="geometry" />
        </mxCell>
        <mxCell id="4" value="Login Page" style="rounded=1;fillColor=#1ba1e2;strokeColor=#006EAF;fontStyle=1;fontFamily=Tahoma;fontSize=14;fontColor=#ffffff;" parent="1" vertex="1">
          <mxGeometry x="180" y="190" width="190" height="81" as="geometry" />
        </mxCell>
        <mxCell id="9" value="" style="edgeStyle=elbowEdgeStyle;elbow=vertical;strokeWidth=2;rounded=0;entryX=0.5;entryY=0;entryDx=0;entryDy=0;exitX=0.5;exitY=1;exitDx=0;exitDy=0;fillColor=#1ba1e2;strokeColor=#006EAF;" parent="1" source="2" target="4" edge="1">
          <mxGeometry x="337" y="215.5" width="100" height="100" as="geometry">
            <mxPoint x="494" y="120" as="sourcePoint" />
            <mxPoint y="200" as="targetPoint" />
            <Array as="points">
              <mxPoint x="214" y="150" />
              <mxPoint x="444" y="160" />
            </Array>
          </mxGeometry>
        </mxCell>
        <mxCell id="wOmWH4nXs55I6z04dUob-126" style="edgeStyle=orthogonalEdgeStyle;rounded=0;orthogonalLoop=1;jettySize=auto;html=1;exitX=0.5;exitY=1;exitDx=0;exitDy=0;entryX=0;entryY=0.5;entryDx=0;entryDy=0;strokeWidth=2;fillColor=#1ba1e2;strokeColor=#006EAF;" parent="1" source="10" target="wOmWH4nXs55I6z04dUob-123" edge="1">
          <mxGeometry relative="1" as="geometry" />
        </mxCell>
        <mxCell id="10" value="My Account" style="rounded=1;fillColor=#1ba1e2;strokeColor=#006EAF;fontStyle=1;fontFamily=Tahoma;fontSize=14;fontColor=#ffffff;" parent="1" vertex="1">
          <mxGeometry x="774.5" y="191.5" width="190" height="80" as="geometry" />
        </mxCell>
        <mxCell id="12" value="Shop" style="rounded=1;fillColor=#1ba1e2;strokeColor=#006EAF;fontStyle=1;fontFamily=Tahoma;fontSize=14;fontColor=#ffffff;" parent="1" vertex="1">
          <mxGeometry x="448" y="193" width="210" height="80" as="geometry" />
        </mxCell>
        <mxCell id="13" value="About Us" style="rounded=1;fillColor=#1ba1e2;strokeColor=#006EAF;fontStyle=1;fontFamily=Tahoma;fontSize=14;fontColor=#ffffff;" parent="1" vertex="1">
          <mxGeometry x="1180" y="193" width="130" height="80" as="geometry" />
        </mxCell>
        <mxCell id="44" value="Email Confirmation" style="rounded=1;fillColor=#1ba1e2;strokeColor=#006EAF;fontStyle=1;fontFamily=Tahoma;fontSize=14;fontColor=#ffffff;" parent="1" vertex="1">
          <mxGeometry x="180" y="296.5" width="190" height="60" as="geometry" />
        </mxCell>
        <mxCell id="45" value="Registration" style="rounded=1;fillColor=#1ba1e2;strokeColor=#006EAF;fontStyle=1;fontFamily=Tahoma;fontSize=14;fontColor=#ffffff;" parent="1" vertex="1">
          <mxGeometry x="180" y="384.5" width="190" height="60" as="geometry" />
        </mxCell>
        <mxCell id="59" value="" style="edgeStyle=elbowEdgeStyle;elbow=vertical;strokeWidth=2;rounded=0;entryX=0.5;entryY=0;entryDx=0;entryDy=0;fillColor=#1ba1e2;strokeColor=#006EAF;" parent="1" source="2" target="12" edge="1">
          <mxGeometry x="347" y="225.5" width="100" height="100" as="geometry">
            <mxPoint x="878.9999999999999" y="133" as="sourcePoint" />
            <mxPoint x="1483.9999999999998" y="203" as="targetPoint" />
            <Array as="points">
              <mxPoint x="494" y="150" />
            </Array>
          </mxGeometry>
        </mxCell>
        <mxCell id="61" value="" style="edgeStyle=elbowEdgeStyle;elbow=vertical;strokeWidth=2;rounded=0;exitX=0.5;exitY=1;exitDx=0;exitDy=0;entryX=0.5;entryY=0;entryDx=0;entryDy=0;fillColor=#1ba1e2;strokeColor=#006EAF;" parent="1" source="2" target="13" edge="1">
          <mxGeometry x="-23" y="135.5" width="100" height="100" as="geometry">
            <mxPoint x="-6" y="93" as="sourcePoint" />
            <mxPoint x="94" y="-7" as="targetPoint" />
            <Array as="points">
              <mxPoint x="834" y="150" />
            </Array>
          </mxGeometry>
        </mxCell>
        <mxCell id="105" value="" style="edgeStyle=elbowEdgeStyle;elbow=vertical;strokeWidth=2;rounded=0;fillColor=#1ba1e2;strokeColor=#006EAF;" parent="1" target="44" edge="1">
          <mxGeometry x="-23" y="135.5" width="100" height="100" as="geometry">
            <mxPoint x="275" y="271.5" as="sourcePoint" />
            <mxPoint x="280" y="320" as="targetPoint" />
          </mxGeometry>
        </mxCell>
        <mxCell id="TKSZ8O7KscSdH1ZMQKX3-125" value="" style="edgeStyle=elbowEdgeStyle;elbow=vertical;strokeWidth=2;rounded=0;entryX=0.5;entryY=0;entryDx=0;entryDy=0;exitX=0.5;exitY=1;exitDx=0;exitDy=0;fillColor=#1ba1e2;strokeColor=#006EAF;" parent="1" source="44" target="45" edge="1">
          <mxGeometry x="-23" y="135.5" width="100" height="100" as="geometry">
            <mxPoint x="285" y="281.5" as="sourcePoint" />
            <mxPoint x="285" y="306.5" as="targetPoint" />
          </mxGeometry>
        </mxCell>
        <mxCell id="TKSZ8O7KscSdH1ZMQKX3-180" value="Categories" style="rounded=1;fillColor=#1ba1e2;strokeColor=#006EAF;fontStyle=1;fontFamily=Tahoma;fontSize=14;fontColor=#ffffff;" parent="1" vertex="1">
          <mxGeometry x="390" y="313" width="140" height="60" as="geometry" />
        </mxCell>
        <mxCell id="TKSZ8O7KscSdH1ZMQKX3-181" value="Collection" style="rounded=1;fillColor=#1ba1e2;strokeColor=#006EAF;fontStyle=1;fontFamily=Tahoma;fontSize=14;fontColor=#ffffff;" parent="1" vertex="1">
          <mxGeometry x="390" y="403" width="140" height="60" as="geometry" />
        </mxCell>
        <mxCell id="TKSZ8O7KscSdH1ZMQKX3-187" value="" style="edgeStyle=elbowEdgeStyle;elbow=horizontal;strokeWidth=2;rounded=0;exitX=0.5;exitY=1;exitDx=0;exitDy=0;fillColor=#1ba1e2;strokeColor=#006EAF;entryX=1;entryY=0.5;entryDx=0;entryDy=0;" parent="1" source="12" target="TKSZ8O7KscSdH1ZMQKX3-180" edge="1">
          <mxGeometry x="-23" y="135.5" width="100" height="100" as="geometry">
            <mxPoint x="518" y="334.75" as="sourcePoint" />
            <mxPoint x="393" y="54.25" as="targetPoint" />
            <Array as="points">
              <mxPoint x="553" y="320" />
            </Array>
          </mxGeometry>
        </mxCell>
        <mxCell id="TKSZ8O7KscSdH1ZMQKX3-188" value="" style="edgeStyle=elbowEdgeStyle;elbow=horizontal;strokeWidth=2;rounded=0;exitX=0.5;exitY=1;exitDx=0;exitDy=0;fillColor=#1ba1e2;strokeColor=#006EAF;" parent="1" source="12" target="TKSZ8O7KscSdH1ZMQKX3-181" edge="1">
          <mxGeometry x="-23" y="135.5" width="100" height="100" as="geometry">
            <mxPoint x="518" y="334.75" as="sourcePoint" />
            <mxPoint x="393" y="54.25" as="targetPoint" />
            <Array as="points">
              <mxPoint x="553" y="350" />
            </Array>
          </mxGeometry>
        </mxCell>
        <mxCell id="TKSZ8O7KscSdH1ZMQKX3-202" value="" style="edgeStyle=elbowEdgeStyle;elbow=horizontal;strokeWidth=2;rounded=0;exitX=0.5;exitY=1;exitDx=0;exitDy=0;entryX=0;entryY=0.5;entryDx=0;entryDy=0;fillColor=#1ba1e2;strokeColor=#006EAF;" parent="1" source="12" target="TKSZ8O7KscSdH1ZMQKX3-206" edge="1">
          <mxGeometry x="-23" y="135.5" width="100" height="100" as="geometry">
            <mxPoint x="558" y="281.5" as="sourcePoint" />
            <mxPoint x="588" y="343.0000000000001" as="targetPoint" />
            <Array as="points">
              <mxPoint x="553" y="310" />
            </Array>
          </mxGeometry>
        </mxCell>
        <mxCell id="TKSZ8O7KscSdH1ZMQKX3-206" value="Search" style="rounded=1;fillColor=#1ba1e2;strokeColor=#006EAF;fontStyle=1;fontFamily=Tahoma;fontSize=14;fontColor=#ffffff;" parent="1" vertex="1">
          <mxGeometry x="580" y="313" width="130" height="60" as="geometry" />
        </mxCell>
        <mxCell id="TKSZ8O7KscSdH1ZMQKX3-214" value="Account" style="rounded=1;fillColor=#1ba1e2;strokeColor=#006EAF;fontStyle=1;fontFamily=Tahoma;fontSize=14;fontColor=#ffffff;" parent="1" vertex="1">
          <mxGeometry x="720" y="311.5" width="130" height="60" as="geometry" />
        </mxCell>
        <mxCell id="TKSZ8O7KscSdH1ZMQKX3-216" value="" style="edgeStyle=elbowEdgeStyle;elbow=vertical;strokeWidth=2;rounded=0;exitX=0.5;exitY=1;exitDx=0;exitDy=0;entryX=1;entryY=0.5;entryDx=0;entryDy=0;fillColor=#1ba1e2;strokeColor=#006EAF;" parent="1" source="10" target="TKSZ8O7KscSdH1ZMQKX3-214" edge="1">
          <mxGeometry x="-23" y="135.5" width="100" height="100" as="geometry">
            <mxPoint x="858.5" y="311.5" as="sourcePoint" />
            <mxPoint x="733.5" y="31" as="targetPoint" />
            <Array as="points">
              <mxPoint x="846.5" y="341.5" />
            </Array>
          </mxGeometry>
        </mxCell>
        <mxCell id="TKSZ8O7KscSdH1ZMQKX3-220" value="Logout" style="rounded=1;fillColor=#1ba1e2;strokeColor=#006EAF;fontStyle=1;fontFamily=Tahoma;fontSize=14;fontColor=#ffffff;" parent="1" vertex="1">
          <mxGeometry x="720" y="401.5" width="130" height="60" as="geometry" />
        </mxCell>
        <mxCell id="TKSZ8O7KscSdH1ZMQKX3-222" value="" style="edgeStyle=elbowEdgeStyle;elbow=vertical;strokeWidth=2;rounded=0;exitX=0.5;exitY=1;exitDx=0;exitDy=0;entryX=1;entryY=0.5;entryDx=0;entryDy=0;fillColor=#1ba1e2;strokeColor=#006EAF;" parent="1" source="10" target="TKSZ8O7KscSdH1ZMQKX3-220" edge="1">
          <mxGeometry x="-23" y="135.5" width="100" height="100" as="geometry">
            <mxPoint x="693.5" y="316.5" as="sourcePoint" />
            <mxPoint x="826.5" y="568.5" as="targetPoint" />
            <Array as="points">
              <mxPoint x="848.5" y="431.5" />
              <mxPoint x="886.5" y="342" />
            </Array>
          </mxGeometry>
        </mxCell>
        <mxCell id="TKSZ8O7KscSdH1ZMQKX3-224" value="" style="edgeStyle=elbowEdgeStyle;elbow=vertical;strokeWidth=2;rounded=0;entryX=0.5;entryY=0;entryDx=0;entryDy=0;exitX=0.5;exitY=1;exitDx=0;exitDy=0;fillColor=#1ba1e2;strokeColor=#006EAF;" parent="1" source="2" target="10" edge="1">
          <mxGeometry x="-23" y="135.5" width="100" height="100" as="geometry">
            <mxPoint x="879" y="133.5" as="sourcePoint" />
            <mxPoint x="742" y="203.5" as="targetPoint" />
            <Array as="points">
              <mxPoint x="934" y="150" />
            </Array>
          </mxGeometry>
        </mxCell>
        <mxCell id="TKSZ8O7KscSdH1ZMQKX3-231" value="Cart" style="rounded=1;fillColor=#1ba1e2;strokeColor=#006EAF;fontStyle=1;fontFamily=Tahoma;fontSize=14;fontColor=#ffffff;" parent="1" vertex="1">
          <mxGeometry x="1030" y="193" width="130" height="77" as="geometry" />
        </mxCell>
        <mxCell id="TKSZ8O7KscSdH1ZMQKX3-232" value="Checkout" style="rounded=1;fillColor=#1ba1e2;strokeColor=#006EAF;fontStyle=1;fontFamily=Tahoma;fontSize=14;fontColor=#ffffff;" parent="1" vertex="1">
          <mxGeometry x="1030" y="308" width="130" height="67" as="geometry" />
        </mxCell>
        <mxCell id="TKSZ8O7KscSdH1ZMQKX3-236" value="Order Success" style="rounded=1;fillColor=#1ba1e2;strokeColor=#006EAF;fontStyle=1;fontFamily=Tahoma;fontSize=14;fontColor=#ffffff;" parent="1" vertex="1">
          <mxGeometry x="1030" y="410" width="130" height="64" as="geometry" />
        </mxCell>
        <mxCell id="TKSZ8O7KscSdH1ZMQKX3-263" value="" style="edgeStyle=elbowEdgeStyle;elbow=vertical;rounded=0;strokeWidth=2;exitX=0.5;exitY=1;exitDx=0;exitDy=0;entryX=0.5;entryY=0;entryDx=0;entryDy=0;fillColor=#1ba1e2;strokeColor=#006EAF;" parent="1" source="TKSZ8O7KscSdH1ZMQKX3-231" target="TKSZ8O7KscSdH1ZMQKX3-232" edge="1">
          <mxGeometry x="-23" y="135.5" width="100" height="100" as="geometry">
            <mxPoint x="652" y="381.5" as="sourcePoint" />
            <mxPoint x="652" y="411.5" as="targetPoint" />
          </mxGeometry>
        </mxCell>
        <mxCell id="TKSZ8O7KscSdH1ZMQKX3-265" value="" style="edgeStyle=elbowEdgeStyle;elbow=vertical;rounded=0;strokeWidth=2;exitX=0.5;exitY=1;exitDx=0;exitDy=0;entryX=0.5;entryY=0;entryDx=0;entryDy=0;fillColor=#1ba1e2;strokeColor=#006EAF;" parent="1" source="TKSZ8O7KscSdH1ZMQKX3-232" target="TKSZ8O7KscSdH1ZMQKX3-236" edge="1">
          <mxGeometry x="-23" y="135.5" width="100" height="100" as="geometry">
            <mxPoint x="1105" y="280.5" as="sourcePoint" />
            <mxPoint x="1105" y="318.5" as="targetPoint" />
          </mxGeometry>
        </mxCell>
        <mxCell id="wOmWH4nXs55I6z04dUob-123" value="Orders" style="rounded=1;fillColor=#1ba1e2;strokeColor=#006EAF;fontStyle=1;fontFamily=Tahoma;fontSize=14;fontColor=#ffffff;" parent="1" vertex="1">
          <mxGeometry x="890" y="311.5" width="130" height="60" as="geometry" />
        </mxCell>
        <mxCell id="wOmWH4nXs55I6z04dUob-129" value="Contact Us" style="rounded=1;fillColor=#1ba1e2;strokeColor=#006EAF;fontStyle=1;fontFamily=Tahoma;fontSize=14;fontColor=#ffffff;" parent="1" vertex="1">
          <mxGeometry x="1340" y="190.5" width="130" height="80" as="geometry" />
        </mxCell>
        <mxCell id="wOmWH4nXs55I6z04dUob-132" value="Featured Product" style="rounded=1;fillColor=#1ba1e2;strokeColor=#006EAF;fontStyle=1;fontFamily=Tahoma;fontSize=14;fontColor=#ffffff;" parent="1" vertex="1">
          <mxGeometry x="390" y="500" width="140" height="60" as="geometry" />
        </mxCell>
        <mxCell id="wOmWH4nXs55I6z04dUob-133" value="Promo" style="rounded=1;fillColor=#1ba1e2;strokeColor=#006EAF;fontStyle=1;fontFamily=Tahoma;fontSize=14;fontColor=#ffffff;" parent="1" vertex="1">
          <mxGeometry x="390" y="590" width="140" height="60" as="geometry" />
        </mxCell>
        <mxCell id="PhjUThDd1CWYnKA9ruTt-107" value="" style="edgeStyle=elbowEdgeStyle;elbow=horizontal;strokeWidth=2;rounded=0;exitX=0.5;exitY=1;exitDx=0;exitDy=0;fillColor=#1ba1e2;strokeColor=#006EAF;entryX=1;entryY=0.5;entryDx=0;entryDy=0;" edge="1" parent="1" source="12" target="wOmWH4nXs55I6z04dUob-132">
          <mxGeometry x="-23" y="135.5" width="100" height="100" as="geometry">
            <mxPoint x="563" y="283" as="sourcePoint" />
            <mxPoint x="500" y="443" as="targetPoint" />
            <Array as="points">
              <mxPoint x="553" y="400" />
            </Array>
          </mxGeometry>
        </mxCell>
        <mxCell id="PhjUThDd1CWYnKA9ruTt-109" value="" style="edgeStyle=elbowEdgeStyle;elbow=horizontal;strokeWidth=2;rounded=0;exitX=0.5;exitY=1;exitDx=0;exitDy=0;fillColor=#1ba1e2;strokeColor=#006EAF;entryX=1;entryY=0.5;entryDx=0;entryDy=0;" edge="1" parent="1" source="12" target="wOmWH4nXs55I6z04dUob-133">
          <mxGeometry x="-23" y="135.5" width="100" height="100" as="geometry">
            <mxPoint x="573" y="293" as="sourcePoint" />
            <mxPoint x="510" y="550" as="targetPoint" />
            <Array as="points">
              <mxPoint x="553" y="450" />
            </Array>
          </mxGeometry>
        </mxCell>
        <mxCell id="PhjUThDd1CWYnKA9ruTt-111" value="Chat Bot" style="rounded=1;fillColor=#1ba1e2;strokeColor=#006EAF;fontStyle=1;fontFamily=Tahoma;fontSize=14;fontColor=#ffffff;" vertex="1" parent="1">
          <mxGeometry x="1490" y="190" width="130" height="80" as="geometry" />
        </mxCell>
        <mxCell id="PhjUThDd1CWYnKA9ruTt-113" style="edgeStyle=orthogonalEdgeStyle;rounded=0;orthogonalLoop=1;jettySize=auto;html=1;exitX=0.5;exitY=1;exitDx=0;exitDy=0;entryX=0.5;entryY=0;entryDx=0;entryDy=0;strokeWidth=2;fillColor=#1ba1e2;strokeColor=#006EAF;" edge="1" parent="1" source="2" target="PhjUThDd1CWYnKA9ruTt-111">
          <mxGeometry relative="1" as="geometry">
            <Array as="points">
              <mxPoint x="869" y="150" />
              <mxPoint x="1555" y="150" />
            </Array>
            <mxPoint x="879" y="133" as="sourcePoint" />
            <mxPoint x="1415" y="201" as="targetPoint" />
          </mxGeometry>
        </mxCell>
      </root>
    </mxGraphModel>
  </diagram>
</mxfile>
